<svg width="23" height="22" viewBox="0 0 23 22" fill="none" xmlns="http://www.w3.org/2000/svg">
<path d="M11.5999 2.14594C14.4836 2.14594 14.8252 2.15691 15.964 2.20887C17.017 2.25693 17.5889 2.43287 17.9695 2.58073C18.4735 2.77665 18.8333 3.01072 19.2112 3.38863C19.5892 3.76653 19.8232 4.12635 20.0191 4.63042C20.167 5.01103 20.3429 5.58288 20.391 6.63582C20.443 7.77468 20.4539 8.11623 20.4539 11C20.4539 13.8837 20.443 14.2253 20.391 15.3641C20.3429 16.4171 20.167 16.9889 20.0191 17.3695C19.8232 17.8736 19.5892 18.2334 19.2112 18.6113C18.8333 18.9892 18.4735 19.2233 17.9695 19.4192C17.5889 19.5671 17.017 19.743 15.964 19.7911C14.8254 19.843 14.4838 19.854 11.5999 19.854C8.716 19.854 8.37444 19.843 7.2358 19.7911C6.18281 19.743 5.61096 19.5671 5.2304 19.4192C4.72628 19.2233 4.36647 18.9892 3.98856 18.6113C3.61066 18.2334 3.37658 17.8736 3.18071 17.3695C3.0328 16.9889 2.85686 16.4171 2.8088 15.3641C2.75684 14.2253 2.74587 13.8837 2.74587 11C2.74587 8.11623 2.75684 7.77468 2.8088 6.63587C2.85686 5.58288 3.0328 5.01103 3.18071 4.63042C3.37658 4.12635 3.61066 3.76653 3.98856 3.38863C4.36647 3.01072 4.72628 2.77665 5.2304 2.58073C5.61096 2.43287 6.18281 2.25693 7.23576 2.20887C8.37462 2.15691 8.71617 2.14594 11.5999 2.14594ZM11.5999 0.199951C8.66678 0.199951 8.29903 0.212384 7.1471 0.264943C5.99752 0.317417 5.21248 0.49996 4.52547 0.766959C3.81528 1.04296 3.21299 1.41225 2.61258 2.01265C2.01218 2.61305 1.64289 3.21535 1.36689 3.92554C1.09989 4.61254 0.91735 5.39759 0.864876 6.54717C0.812316 7.69906 0.799927 8.06685 0.799927 11C0.799927 13.9331 0.812316 14.3009 0.864876 15.4528C0.91735 16.6024 1.09989 17.3874 1.36689 18.0744C1.64289 18.7846 2.01218 19.3869 2.61258 19.9873C3.21299 20.5877 3.81528 20.957 4.52547 21.233C5.21248 21.5 5.99752 21.6825 7.1471 21.735C8.29903 21.7876 8.66678 21.7999 11.5999 21.7999C14.533 21.7999 14.9008 21.7876 16.0527 21.735C17.2023 21.6825 17.9873 21.5 18.6743 21.233C19.3845 20.957 19.9868 20.5877 20.5872 19.9873C21.1876 19.3869 21.5569 18.7846 21.8329 18.0744C22.0999 17.3874 22.2825 16.6024 22.3349 15.4528C22.3875 14.3009 22.3999 13.9331 22.3999 11C22.3999 8.06685 22.3875 7.69906 22.3349 6.54717C22.2825 5.39759 22.0999 4.61254 21.8329 3.92554C21.5569 3.21535 21.1876 2.61305 20.5872 2.01265C19.9868 1.41225 19.3845 1.04296 18.6743 0.766959C17.9873 0.49996 17.2023 0.317417 16.0527 0.264943C14.9008 0.212384 14.533 0.199951 11.5999 0.199951ZM11.5999 5.45401C8.53697 5.45401 6.05394 7.93704 6.05394 11C6.05394 14.0629 8.53697 16.5459 11.5999 16.5459C14.6628 16.5459 17.1459 14.0629 17.1459 11C17.1459 7.93704 14.6628 5.45401 11.5999 5.45401ZM11.5999 14.6C9.61169 14.6 7.99988 12.9882 7.99988 11C7.99988 9.01176 9.61169 7.39995 11.5999 7.39995C13.5881 7.39995 15.1999 9.01176 15.1999 11C15.1999 12.9882 13.5881 14.6 11.5999 14.6ZM18.661 5.2349C18.661 5.95066 18.0807 6.53092 17.365 6.53092C16.6492 6.53092 16.069 5.95066 16.069 5.2349C16.069 4.51913 16.6492 3.93892 17.365 3.93892C18.0807 3.93892 18.661 4.51913 18.661 5.2349Z" fill="#1E1E1E"/>
</svg>
