<svg width="24" height="24" viewBox="0 0 24 24" fill="none" xmlns="http://www.w3.org/2000/svg">
<path fill-rule="evenodd" clip-rule="evenodd" d="M15.2894 16.1896C13.6681 17.6024 11.5485 18.4581 9.22903 18.4581C4.13198 18.4581 0 14.3261 0 9.22903C0 4.13198 4.13198 0 9.22903 0C14.3261 0 18.4581 4.13198 18.4581 9.22903C18.4581 11.5485 17.6024 13.6681 16.1896 15.2894L24 23.0999L23.0999 24L15.2894 16.1896ZM17.1851 9.22903C17.1851 13.623 13.623 17.1851 9.22903 17.1851C4.83502 17.1851 1.27297 13.623 1.27297 9.22903C1.27297 4.83502 4.83502 1.27297 9.22903 1.27297C13.623 1.27297 17.1851 4.83502 17.1851 9.22903Z" fill="#315031"/>
</svg>
