<svg width="22" height="22" viewBox="0 0 22 22" fill="none" xmlns="http://www.w3.org/2000/svg">
<path fill-rule="evenodd" clip-rule="evenodd" d="M4.98862 0H0.989193L0.0146483 15.0649C-0.0443385 15.953 0.075234 16.844 0.365939 17.6826C0.656644 18.5213 1.11227 19.2896 1.70453 19.94C2.29679 20.5903 3.01303 21.1088 3.80877 21.4632C4.60451 21.8176 5.46275 22.0003 6.3302 22H15.6706C16.537 22.0002 17.3941 21.8178 18.1889 21.4642C18.9837 21.1106 19.6994 20.5933 20.2914 19.9444C20.8835 19.2955 21.3394 18.5287 21.6309 17.6916C21.9225 16.8545 22.0434 15.9649 21.9862 15.0779L20.999 0H12.9938H4.98862ZM2.1789 1.2987H4.98862V2.11688C4.98862 2.92699 5.14412 3.72916 5.44624 4.47759C5.74837 5.22603 6.19119 5.90608 6.74944 6.47891C7.30769 7.05173 7.97042 7.50613 8.69981 7.81614C9.42919 8.12615 10.2109 8.28571 11.0004 8.28571C11.7899 8.28571 12.5717 8.12615 13.301 7.81614C14.0304 7.50613 14.6932 7.05173 15.2514 6.47891C15.8097 5.90608 16.2525 5.22603 16.5546 4.47759C16.8567 3.72916 17.0122 2.92699 17.0122 2.11688V1.2987H19.822L20.7332 15.1558C20.7801 15.8669 20.6839 16.5803 20.4505 17.2517C20.2172 17.923 19.8517 18.5378 19.3769 19.058C18.902 19.5781 18.3279 19.9924 17.6903 20.2752C17.0527 20.5579 16.3652 20.7029 15.6706 20.7013H6.3302C5.63668 20.7011 4.95059 20.5548 4.31448 20.2713C3.67837 19.9878 3.10581 19.5732 2.63231 19.0532C2.15882 18.5333 1.79448 17.919 1.56191 17.2486C1.32933 16.5782 1.23348 15.8659 1.28029 15.1558L2.1789 1.2987ZM6.25427 1.2987H15.7466V2.11688C15.7466 3.40852 15.2465 4.64726 14.3565 5.56058C13.4664 6.47391 12.2592 6.98701 11.0004 6.98701C9.74166 6.98701 8.53446 6.47391 7.64438 5.56058C6.7543 4.64726 6.25427 3.40852 6.25427 2.11688V1.2987Z" fill="#315031"/>
</svg>
