<svg width="24" height="24" viewBox="0 0 24 24" fill="none" xmlns="http://www.w3.org/2000/svg">
<path d="M20.5742 7.95045C20.5742 8.15279 20.5742 8.33827 20.5742 8.50689C20.5742 10.0245 20.2875 11.5252 19.7142 13.009C19.1747 14.4591 18.3822 15.7912 17.3367 17.0053C16.325 18.2193 14.9929 19.2142 13.3405 19.9898C11.7217 20.7317 9.93438 21.1027 7.9784 21.1027C5.51658 21.1027 3.25709 20.4451 1.19995 19.1298C1.53719 19.1636 1.89129 19.1804 2.26225 19.1804C4.31939 19.1804 6.15733 18.5565 7.77606 17.3088C6.79808 17.275 5.92126 16.9715 5.14562 16.3982C4.4037 15.8249 3.89784 15.0999 3.62805 14.223C3.89784 14.2905 4.16763 14.3242 4.43742 14.3242C4.84211 14.3242 5.22993 14.2568 5.60089 14.1219C4.58918 13.9195 3.74609 13.4137 3.07161 12.6043C2.39714 11.7949 2.0599 10.8675 2.0599 9.82211C2.0599 9.78839 2.0599 9.77153 2.0599 9.77153C2.70065 10.1088 3.37513 10.2942 4.08332 10.328C2.7681 9.41743 2.11049 8.18651 2.11049 6.63523C2.11049 5.82586 2.31283 5.08394 2.71752 4.40947C3.8304 5.75841 5.16248 6.83757 6.71377 7.64694C8.29878 8.4563 10.0018 8.91157 11.8229 9.01274C11.7555 8.67551 11.7217 8.33827 11.7217 8.00103C11.7217 6.78698 12.1433 5.75841 12.9864 4.91532C13.8632 4.03851 14.9086 3.6001 16.1227 3.6001C17.4042 3.6001 18.4833 4.05537 19.3601 4.96591C20.3718 4.76356 21.3161 4.40947 22.1929 3.90361C21.8557 4.94904 21.1981 5.75841 20.2201 6.33171C21.1306 6.23054 21.9906 6.01134 22.7999 5.6741C22.1929 6.55092 21.451 7.3097 20.5742 7.95045Z" fill="#1E1E1E"/>
</svg>
