<svg version="1.1" id="Layer_1" xmlns="http://www.w3.org/2000/svg" xmlns:xlink="http://www.w3.org/1999/xlink" x="0px" y="0px"
	 width="100%" viewBox="0 0 750 750" enable-background="new 0 0 750 750" xml:space="preserve">
<path fill="#000000" opacity="1.000000" stroke="none" 
	d="
M1.000004,680.000000 
	C1.000000,677.629272 1.000000,675.258484 1.333601,672.182861 
	C1.777973,670.159668 1.985691,668.841309 1.985788,667.522949 
	C2.000070,473.548431 2.001587,279.573944 1.957869,85.599434 
	C1.957524,84.066216 1.333057,82.533142 1.000000,81.000000 
	C1.000000,78.629265 1.000000,76.258522 1.368027,73.320511 
	C1.905505,71.944283 2.077117,71.135780 2.244095,70.326324 
	C9.845688,33.475937 31.863556,10.757308 68.671661,2.495980 
	C69.834450,2.234999 70.892906,1.509140 72.000000,1.000000 
	C73.388893,1.000000 74.777779,1.000000 76.811378,1.362886 
	C78.440163,1.819155 79.424240,1.994308 80.408325,1.994365 
	C277.923218,2.005745 475.438110,2.006755 672.953003,1.962695 
	C674.302063,1.962394 675.651001,1.334725 677.000000,1.000000 
	C677.000000,1.000000 677.500000,1.000000 677.933472,1.361783 
	C711.418030,4.600714 740.061401,28.521307 749.067871,60.726231 
	C749.570557,62.523682 750.349548,64.243858 751.000000,66.000000 
	C751.000000,273.357422 751.000000,480.714844 750.639404,688.622192 
	C749.880676,690.259705 749.430176,691.331238 749.091797,692.437073 
	C740.480957,720.580566 722.133057,739.199646 694.270996,748.524536 
	C691.843079,749.337097 689.423462,750.174316 687.000000,751.000000 
	C479.975922,751.000000 272.951843,751.000000 65.366608,750.643677 
	C64.032753,749.997437 63.274246,749.659912 62.485325,749.424255 
	C29.409214,739.541565 9.434958,717.667114 2.421932,683.888794 
	C2.144341,682.551758 1.482698,681.294434 1.000004,680.000000 
M413.934601,526.601562 
	C434.982422,554.743408 456.069275,582.856384 477.010162,611.077637 
	C478.847717,613.554016 480.751221,614.236145 483.651093,614.231384 
	C530.980957,614.153687 578.311035,614.178589 625.641052,614.164062 
	C627.015625,614.163635 628.390198,613.986572 630.360352,613.850830 
	C561.231812,521.424988 492.532623,429.573181 423.628418,337.447296 
	C484.689392,271.474030 545.658325,205.600296 607.272217,139.029633 
	C592.999207,139.029633 580.001526,139.133972 567.007812,138.953735 
	C563.893494,138.910538 561.829407,139.852158 559.727905,142.129791 
	C517.242859,188.175217 474.678619,234.147552 432.125214,280.129883 
	C422.754089,290.256165 413.363770,300.364594 403.788483,310.690216 
	C402.600586,309.190460 401.663879,308.064667 400.787781,306.893555 
	C359.986298,252.352356 319.173981,197.819214 278.438782,143.228516 
	C276.310089,140.375809 274.284027,138.892426 270.368073,138.908096 
	C223.372116,139.096115 176.375168,139.029694 129.378464,139.029709 
	C127.952843,139.029709 126.527229,139.029694 124.046562,139.029694 
	C189.800461,226.952881 254.938782,314.052948 320.070801,401.144592 
	C254.368774,472.124939 189.030060,542.712769 122.880661,614.176392 
	C136.932281,614.176392 149.704788,614.021973 162.469315,614.272827 
	C166.175659,614.345703 168.560211,613.120056 171.008881,610.465698 
	C214.959000,562.824097 258.999390,515.265747 303.025421,467.694183 
	C315.218323,454.519348 327.427429,441.359528 340.008820,427.783051 
	C364.681061,460.771820 389.086914,493.404388 413.934601,526.601562 
z"/>
<path fill="#FDFDFD" opacity="1.000000" stroke="none" 
	d="
M71.531342,1.000000 
	C70.892906,1.509140 69.834450,2.234999 68.671661,2.495980 
	C31.863556,10.757308 9.845688,33.475937 2.244095,70.326324 
	C2.077117,71.135780 1.905505,71.944283 1.368027,72.876617 
	C1.000000,49.073654 1.000000,25.147305 1.000000,1.000000 
	C24.353764,1.000000 47.708221,1.000000 71.531342,1.000000 
z"/>
<path fill="#FCFCFC" opacity="1.000000" stroke="none" 
	d="
M1.000004,680.468628 
	C1.482698,681.294434 2.144341,682.551758 2.421932,683.888794 
	C9.434958,717.667114 29.409214,739.541565 62.485325,749.424255 
	C63.274246,749.659912 64.032753,749.997437 64.902725,750.643677 
	C43.736027,751.000000 22.472055,751.000000 1.000000,751.000000 
	C1.000000,727.646179 1.000000,704.291748 1.000004,680.468628 
z"/>
<path fill="#FCFCFC" opacity="1.000000" stroke="none" 
	d="
M751.000000,65.531342 
	C750.349548,64.243858 749.570557,62.523682 749.067871,60.726231 
	C740.061401,28.521307 711.418030,4.600714 678.183472,1.361783 
	C702.255920,1.000000 726.511902,1.000000 751.000000,1.000000 
	C751.000000,22.353666 751.000000,43.708176 751.000000,65.531342 
z"/>
<path fill="#FDFDFD" opacity="1.000000" stroke="none" 
	d="
M687.468628,751.000000 
	C689.423462,750.174316 691.843079,749.337097 694.270996,748.524536 
	C722.133057,739.199646 740.480957,720.580566 749.091797,692.437073 
	C749.430176,691.331238 749.880676,690.259705 750.639404,689.086060 
	C751.000000,709.594666 751.000000,730.189270 751.000000,751.000000 
	C729.979614,751.000000 708.958435,751.000000 687.468628,751.000000 
z"/>
<path fill="#484848" opacity="1.000000" stroke="none" 
	d="
M676.531372,1.000000 
	C675.651001,1.334725 674.302063,1.962394 672.953003,1.962695 
	C475.438110,2.006755 277.923218,2.005745 80.408325,1.994365 
	C79.424240,1.994308 78.440163,1.819155 77.228043,1.362886 
	C276.687561,1.000000 476.375122,1.000000 676.531372,1.000000 
z"/>
<path fill="#484848" opacity="1.000000" stroke="none" 
	d="
M1.000000,81.468658 
	C1.333057,82.533142 1.957524,84.066216 1.957869,85.599434 
	C2.001587,279.573944 2.000070,473.548431 1.985788,667.522949 
	C1.985691,668.841309 1.777973,670.159668 1.333601,671.739014 
	C1.000000,475.312439 1.000000,278.624878 1.000000,81.468658 
z"/>
<path fill="#FDFDFD" opacity="1.000000" stroke="none" 
	d="
M413.713684,526.319214 
	C389.086914,493.404388 364.681061,460.771820 340.008820,427.783051 
	C327.427429,441.359528 315.218323,454.519348 303.025421,467.694183 
	C258.999390,515.265747 214.959000,562.824097 171.008881,610.465698 
	C168.560211,613.120056 166.175659,614.345703 162.469315,614.272827 
	C149.704788,614.021973 136.932281,614.176392 122.880661,614.176392 
	C189.030060,542.712769 254.368774,472.124939 320.070801,401.144592 
	C254.938782,314.052948 189.800461,226.952881 124.046562,139.029694 
	C126.527229,139.029694 127.952843,139.029709 129.378464,139.029709 
	C176.375168,139.029694 223.372116,139.096115 270.368073,138.908096 
	C274.284027,138.892426 276.310089,140.375809 278.438782,143.228516 
	C319.173981,197.819214 359.986298,252.352356 400.787781,306.893555 
	C401.663879,308.064667 402.600586,309.190460 403.788483,310.690216 
	C413.363770,300.364594 422.754089,290.256165 432.125214,280.129883 
	C474.678619,234.147552 517.242859,188.175217 559.727905,142.129791 
	C561.829407,139.852158 563.893494,138.910538 567.007812,138.953735 
	C580.001526,139.133972 592.999207,139.029633 607.272217,139.029633 
	C545.658325,205.600296 484.689392,271.474030 423.628418,337.447296 
	C492.532623,429.573181 561.231812,521.424988 630.360352,613.850830 
	C628.390198,613.986572 627.015625,614.163635 625.641052,614.164062 
	C578.311035,614.178589 530.980957,614.153687 483.651093,614.231384 
	C480.751221,614.236145 478.847717,613.554016 477.010162,611.077637 
	C456.069275,582.856384 434.982422,554.743408 413.713684,526.319214 
M331.223877,361.275604 
	C385.194824,433.427979 439.176331,505.572449 493.091370,577.766541 
	C494.933990,580.233826 496.724609,581.481323 500.010040,581.452820 
	C520.341553,581.275940 540.675476,581.370117 561.008545,581.345520 
	C562.039612,581.344299 563.070496,581.077820 564.573120,580.869385 
	C563.664490,579.571533 563.131775,578.764404 562.553528,577.991272 
	C462.101837,443.685486 361.639587,309.387665 261.250275,175.035294 
	C259.424011,172.591156 257.535614,171.860504 254.610245,171.878571 
	C234.611252,172.002014 214.611130,171.943222 194.611374,171.943176 
	C193.216080,171.943176 191.820786,171.943176 189.628677,171.943176 
	C237.098526,235.392105 283.966217,298.036194 331.223877,361.275604 
z"/>
<path fill="#010101" opacity="1.000000" stroke="none" 
	d="
M331.028900,360.977936 
	C283.966217,298.036194 237.098526,235.392105 189.628677,171.943176 
	C191.820786,171.943176 193.216080,171.943176 194.611374,171.943176 
	C214.611130,171.943222 234.611252,172.002014 254.610245,171.878571 
	C257.535614,171.860504 259.424011,172.591156 261.250275,175.035294 
	C361.639587,309.387665 462.101837,443.685486 562.553528,577.991272 
	C563.131775,578.764404 563.664490,579.571533 564.573120,580.869385 
	C563.070496,581.077820 562.039612,581.344299 561.008545,581.345520 
	C540.675476,581.370117 520.341553,581.275940 500.010040,581.452820 
	C496.724609,581.481323 494.933990,580.233826 493.091370,577.766541 
	C439.176331,505.572449 385.194824,433.427979 331.028900,360.977936 
z"/>
</svg>