<svg version="1.1" id="Layer_1" xmlns="http://www.w3.org/2000/svg" xmlns:xlink="http://www.w3.org/1999/xlink" x="0px" y="0px"
	 width="100%" viewBox="0 0 750 750" enable-background="new 0 0 750 750" xml:space="preserve">
<path fill="#000000" opacity="1.000000" stroke="none" 
	d="
M1.224473,680.300964 
	C1.000000,677.629456 1.000000,675.258850 1.000000,672.444153 
	C1.882430,670.620361 1.497129,669.077942 1.497264,667.611145 
	C1.515139,473.035004 1.515074,278.458862 1.514827,83.882713 
	C1.514827,83.216415 1.499018,82.551010 1.224600,81.443268 
	C1.000000,78.629440 1.000000,76.258888 1.000000,73.444168 
	C2.499500,59.513889 7.220718,47.208767 14.797448,36.010071 
	C26.645164,18.498692 43.347485,7.928844 63.483086,2.415321 
	C66.038223,1.715674 68.763786,1.857732 71.695816,1.225155 
	C73.388893,1.000000 74.777779,1.000000 76.583336,1.000000 
	C78.379631,1.882422 79.922112,1.497134 81.388901,1.497267 
	C278.964539,1.515119 476.540192,1.515074 674.115845,1.514829 
	C674.782532,1.514828 675.448242,1.499022 676.556519,1.224586 
	C677.000000,1.000000 677.500000,1.000000 677.750000,1.000000 
	C686.217285,1.920329 694.316223,3.038352 702.077454,6.364729 
	C724.605652,16.020044 739.604919,32.672150 748.585266,55.157970 
	C749.901123,58.452827 750.100830,61.940956 750.774780,65.695602 
	C751.000000,273.354218 751.000000,480.708466 751.000000,688.531372 
	C747.974487,702.983643 741.601074,715.303406 731.932678,725.770020 
	C719.892090,738.804626 705.761475,748.355225 687.297363,750.776306 
	C479.979095,751.000000 272.958221,751.000000 65.468658,751.000000 
	C55.895020,748.921326 47.143341,745.893555 39.313164,740.704712 
	C17.682783,726.370728 3.967926,707.000183 1.224473,680.300964 
z"/>
<path fill="#FDFDFD" opacity="1.000000" stroke="none" 
	d="
M71.531342,1.000000 
	C71.485588,2.797885 69.797806,2.222405 68.667343,2.476872 
	C31.864429,10.761176 9.845688,33.475937 2.244095,70.326324 
	C2.077117,71.135780 1.905505,71.944283 1.368027,72.876617 
	C1.000000,50.070583 1.065463,27.140739 0.916143,4.212297 
	C0.897729,1.384821 1.561290,0.907904 4.268757,0.924224 
	C26.532742,1.058424 48.797890,1.000000 71.531342,1.000000 
z"/>
<path fill="#FCFCFC" opacity="1.000000" stroke="none" 
	d="
M1.000000,680.468628 
	C2.860099,680.780823 2.120738,682.593445 2.392429,683.894958 
	C9.442530,717.665527 29.409214,739.541565 62.485325,749.424255 
	C63.274246,749.659912 64.032753,749.997437 64.902725,750.643677 
	C44.732777,751.000000 24.464949,750.924316 4.199018,751.086121 
	C1.343768,751.108948 0.910522,750.399048 0.926197,747.719055 
	C1.056396,725.459045 1.000000,703.198059 1.000000,680.468628 
z"/>
<path fill="#FCFCFC" opacity="1.000000" stroke="none" 
	d="
M751.000000,65.531342 
	C749.292053,64.635529 749.608459,62.484753 749.109924,60.714348 
	C740.045898,28.525679 711.418030,4.600714 678.183472,1.361783 
	C701.259094,1.000000 724.518616,1.062879 747.776855,0.917786 
	C750.579834,0.900300 751.097168,1.525805 751.077820,4.257234 
	C750.934265,24.524883 751.000000,44.794018 751.000000,65.531342 
z"/>
<path fill="#FDFDFD" opacity="1.000000" stroke="none" 
	d="
M687.468628,751.000000 
	C689.096985,749.216125 691.852112,749.361633 694.278320,748.546387 
	C722.128906,739.187317 740.480957,720.580566 749.091797,692.437073 
	C749.430176,691.331238 749.880676,690.259705 750.639404,689.086060 
	C751.000000,708.598145 750.923340,728.196899 751.085144,747.793701 
	C751.108582,750.631348 750.424438,751.094299 747.727722,751.075439 
	C727.798401,750.936035 707.867615,751.000000 687.468628,751.000000 
z"/>
<path fill="#484848" opacity="1.000000" stroke="none" 
	d="
M676.531372,1.000000 
	C676.000244,2.742322 674.334167,1.978570 672.953003,1.978760 
	C475.438110,2.006009 277.923218,2.005745 80.408325,1.994365 
	C79.424240,1.994308 78.440163,1.819155 77.228043,1.362886 
	C276.687561,1.000000 476.375122,1.000000 676.531372,1.000000 
z"/>
<path fill="#484848" opacity="1.000000" stroke="none" 
	d="
M1.000000,81.468658 
	C2.754230,82.224411 1.963288,84.056213 1.963588,85.599434 
	C2.001294,279.573944 2.000070,473.548431 1.985788,667.522949 
	C1.985691,668.841309 1.777973,670.159668 1.333601,671.739014 
	C1.000000,475.312439 1.000000,278.624878 1.000000,81.468658 
z"/>
<path fill="#FDFDFD" opacity="1.000000" stroke="none" 
	d="
M413.713684,526.319214 
	C389.960693,494.555695 366.378204,463.111877 342.970001,431.538818 
	C340.467896,428.164001 339.248047,428.452728 336.592926,431.328979 
	C281.550720,490.955200 226.390411,550.472412 171.350769,610.101013 
	C168.651169,613.025635 166.031509,614.369995 161.968933,614.279297 
	C149.372513,613.998047 136.765808,614.176392 123.186935,614.176392 
	C124.920425,612.151245 126.004433,610.794373 127.181046,609.523132 
	C190.563416,541.043640 253.924286,472.544159 317.439697,404.188263 
	C320.271881,401.140228 319.006104,399.661804 317.221222,397.277100 
	C254.352554,313.281586 191.520966,229.258316 128.689651,145.234848 
	C127.341515,143.432007 126.057533,141.581177 124.224045,139.029694 
	C126.527229,139.029694 127.952843,139.029709 129.378464,139.029709 
	C176.541824,139.029694 223.705322,139.077194 270.868225,138.932449 
	C274.353790,138.921768 276.221649,140.241119 278.147766,142.822723 
	C318.879669,197.415771 359.714539,251.932053 400.398773,306.560547 
	C403.026520,310.088959 404.214355,310.476501 407.425385,306.990936 
	C457.777649,252.333984 508.320068,197.852234 558.695801,143.216812 
	C561.548340,140.123032 564.312439,138.836151 568.508911,138.929764 
	C580.999023,139.208298 593.499207,139.029633 606.216919,139.029633 
	C606.309448,141.111343 604.588562,141.876236 603.589233,142.956940 
	C544.763062,206.572510 485.922516,270.174896 426.973358,333.676392 
	C424.358215,336.493439 423.962067,338.081085 426.425537,341.366425 
	C493.363342,430.636322 560.165283,520.008179 626.987610,609.364624 
	C627.965698,610.672546 628.913147,612.003357 629.917542,613.382019 
	C628.561218,614.792236 626.993958,614.139282 625.640991,614.140503 
	C578.311035,614.183289 530.980957,614.153687 483.651093,614.231384 
	C480.751221,614.236145 478.847717,613.554016 477.010162,611.077637 
	C456.069275,582.856384 434.982422,554.743408 413.713684,526.319214 
z"/>
<path fill="#010101" opacity="1.000000" stroke="none" 
	d="
M331.028900,360.977936 
	C283.966217,298.036194 237.098526,235.392105 189.628677,171.943176 
	C191.820786,171.943176 193.216080,171.943176 194.611374,171.943176 
	C214.611130,171.943222 234.611252,172.002014 254.610245,171.878571 
	C257.535614,171.860504 259.424011,172.591156 261.250275,175.035294 
	C361.639587,309.387665 462.101837,443.685486 562.553528,577.991272 
	C563.131775,578.764404 563.664490,579.571533 564.172974,580.297791 
	C563.359619,581.948120 562.030396,581.330750 561.008484,581.332886 
	C540.675476,581.374390 520.341553,581.275940 500.010040,581.452820 
	C496.724609,581.481323 494.933990,580.233826 493.091370,577.766541 
	C439.176331,505.572449 385.194824,433.427979 331.028900,360.977936 
z"/>
</svg>