<svg width="21" height="23" viewBox="0 0 21 23" fill="none" xmlns="http://www.w3.org/2000/svg">
<path d="M6.79412 5.11111C6.79412 4.09445 7.18456 3.11942 7.87955 2.40054C8.57453 1.68165 9.51714 1.27778 10.5 1.27778C11.4829 1.27778 12.4255 1.68165 13.1205 2.40054C13.8154 3.11942 14.2059 4.09445 14.2059 5.11111C14.2059 6.12777 13.8154 7.1028 13.1205 7.82169C12.4255 8.54058 11.4829 8.94444 10.5 8.94444C9.51714 8.94444 8.57453 8.54058 7.87955 7.82169C7.18456 7.1028 6.79412 6.12777 6.79412 5.11111ZM10.5 0C9.18952 0 7.93271 0.538491 7.00606 1.49701C6.07941 2.45553 5.55882 3.75556 5.55882 5.11111C5.55882 6.46666 6.07941 7.76669 7.00606 8.72521C7.93271 9.68373 9.18952 10.2222 10.5 10.2222C11.8105 10.2222 13.0673 9.68373 13.9939 8.72521C14.9206 7.76669 15.4412 6.46666 15.4412 5.11111C15.4412 3.75556 14.9206 2.45553 13.9939 1.49701C13.0673 0.538491 11.8105 0 10.5 0ZM17.3929 15.525C18.7765 16.5728 19.6535 18.3872 19.7524 21.7222H1.24765C1.34647 18.4 2.22353 16.5728 3.59471 15.525C5.13882 14.375 7.41176 14.0556 10.5 14.0556C13.5882 14.0556 15.8735 14.3878 17.3929 15.525ZM10.5 12.7778C7.41176 12.7778 4.75588 13.0844 2.87824 14.5028C0.951176 15.9467 0 18.4383 0 22.3611V23H21V22.3611C21 18.4383 20.0488 15.9467 18.1218 14.5028C16.2441 13.0972 13.5882 12.7778 10.5 12.7778Z" fill="#315031"/>
</svg>
