<svg width="22" height="16" viewBox="0 0 22 16" fill="none" xmlns="http://www.w3.org/2000/svg">
<path d="M21.747 4.03752C21.9156 5.21785 21.9999 6.38131 21.9999 7.52792V9.14665L21.747 12.6371C21.6121 13.615 21.3254 14.3232 20.887 14.7616C20.4149 15.2338 19.7067 15.5373 18.7624 15.6722C17.8519 15.7396 16.7559 15.7902 15.4744 15.8239C14.2266 15.8577 13.198 15.8745 12.3887 15.8745H11.1746C7.43128 15.8408 4.98632 15.7734 3.83971 15.6722C3.83971 15.6722 3.70482 15.6553 3.43503 15.6216C3.16524 15.5879 2.94604 15.5541 2.77742 15.5204C2.6088 15.4867 2.3896 15.4024 2.11981 15.2675C1.88374 15.1326 1.66454 14.964 1.4622 14.7616C1.29358 14.5593 1.12496 14.2895 0.956343 13.9523C0.821448 13.5813 0.737139 13.2609 0.703415 12.9912L0.602244 12.6371C0.46735 11.4567 0.399902 10.2933 0.399902 9.14665V7.52792L0.602244 4.03752C0.737139 3.05953 1.02379 2.35134 1.4622 1.91293C1.93433 1.40707 2.65939 1.10356 3.63737 1.00239C4.54791 0.934943 5.62707 0.884358 6.87484 0.850634C8.12262 0.816911 9.15119 0.800049 9.96056 0.800049H11.1746C14.2097 0.800049 16.739 0.867496 18.7624 1.00239C19.7067 1.10356 20.4149 1.40707 20.887 1.91293C21.0219 2.04782 21.1399 2.21644 21.2411 2.41878C21.3423 2.5874 21.4266 2.77288 21.494 2.97522C21.5615 3.14384 21.6121 3.31246 21.6458 3.48108C21.6795 3.6497 21.7132 3.78459 21.747 3.88576V4.03752ZM14.1086 8.48904L14.8168 8.13494L8.99943 5.09981V11.1701L14.1086 8.48904Z" fill="#1E1E1E"/>
</svg>
